<svg id="visual" viewBox="0 0 960 540" width="960" height="540" xmlns="http://www.w3.org/2000/svg" xmlns:xlink="http://www.w3.org/1999/xlink" version="1.1"><path d="M0 212L107 212L107 239L213 239L213 222L320 222L320 163L427 163L427 217L533 217L533 249L640 249L640 147L747 147L747 114L853 114L853 239L960 239L960 120L960 0L960 0L853 0L853 0L747 0L747 0L640 0L640 0L533 0L533 0L427 0L427 0L320 0L320 0L213 0L213 0L107 0L107 0L0 0Z" fill="#e7f4f1"></path><path d="M0 374L107 374L107 395L213 395L213 298L320 298L320 347L427 347L427 309L533 309L533 422L640 422L640 352L747 352L747 298L853 298L853 320L960 320L960 336L960 118L960 237L853 237L853 112L747 112L747 145L640 145L640 247L533 247L533 215L427 215L427 161L320 161L320 220L213 220L213 237L107 237L107 210L0 210Z" fill="#b8d2cc"></path><path d="M0 428L107 428L107 476L213 476L213 482L320 482L320 428L427 428L427 438L533 438L533 498L640 498L640 449L747 449L747 438L853 438L853 406L960 406L960 438L960 334L960 318L853 318L853 296L747 296L747 350L640 350L640 420L533 420L533 307L427 307L427 345L320 345L320 296L213 296L213 393L107 393L107 372L0 372Z" fill="#8ab2a8"></path><path d="M0 541L107 541L107 541L213 541L213 541L320 541L320 541L427 541L427 541L533 541L533 541L640 541L640 541L747 541L747 541L853 541L853 541L960 541L960 541L960 436L960 404L853 404L853 436L747 436L747 447L640 447L640 496L533 496L533 436L427 436L427 426L320 426L320 480L213 480L213 474L107 474L107 426L0 426Z" fill="#5c9286"></path></svg>